<svg width="90" height="30" viewBox="0 0 90 30" fill="none" xmlns="http://www.w3.org/2000/svg">
<rect width="90" height="30" rx="10" fill="black"/>
<path d="M37.41 16.87H33.045L32.295 19H30.51L34.245 8.56H36.225L39.96 19H38.16L37.41 16.87ZM36.93 15.475L35.235 10.63L33.525 15.475H36.93ZM44.989 8.575C46.099 8.575 47.069 8.79 47.899 9.22C48.739 9.64 49.384 10.25 49.834 11.05C50.294 11.84 50.524 12.765 50.524 13.825C50.524 14.885 50.294 15.805 49.834 16.585C49.384 17.365 48.739 17.965 47.899 18.385C47.069 18.795 46.099 19 44.989 19H41.584V8.575H44.989ZM44.989 17.605C46.209 17.605 47.144 17.275 47.794 16.615C48.444 15.955 48.769 15.025 48.769 13.825C48.769 12.615 48.444 11.67 47.794 10.99C47.144 10.31 46.209 9.97 44.989 9.97H43.294V17.605H44.989ZM55.6238 8.575C56.7338 8.575 57.7038 8.79 58.5338 9.22C59.3738 9.64 60.0188 10.25 60.4688 11.05C60.9288 11.84 61.1588 12.765 61.1588 13.825C61.1588 14.885 60.9288 15.805 60.4688 16.585C60.0188 17.365 59.3738 17.965 58.5338 18.385C57.7038 18.795 56.7338 19 55.6238 19H52.2188V8.575H55.6238ZM55.6238 17.605C56.8438 17.605 57.7788 17.275 58.4288 16.615C59.0788 15.955 59.4038 15.025 59.4038 13.825C59.4038 12.615 59.0788 11.67 58.4288 10.99C57.7788 10.31 56.8438 9.97 55.6238 9.97H53.9288V17.605H55.6238Z" fill="white"/>
</svg>
