<svg width="90" height="30" viewBox="0 0 90 30" fill="none" xmlns="http://www.w3.org/2000/svg">
<rect width="90" height="30" rx="10" fill="white"/>
<path d="M19.555 14.765C19.555 13.745 19.79 12.83 20.26 12.02C20.74 11.21 21.385 10.58 22.195 10.13C23.015 9.67 23.91 9.44 24.88 9.44C25.99 9.44 26.975 9.715 27.835 10.265C28.705 10.805 29.335 11.575 29.725 12.575H27.67C27.4 12.025 27.025 11.615 26.545 11.345C26.065 11.075 25.51 10.94 24.88 10.94C24.19 10.94 23.575 11.095 23.035 11.405C22.495 11.715 22.07 12.16 21.76 12.74C21.46 13.32 21.31 13.995 21.31 14.765C21.31 15.535 21.46 16.21 21.76 16.79C22.07 17.37 22.495 17.82 23.035 18.14C23.575 18.45 24.19 18.605 24.88 18.605C25.51 18.605 26.065 18.47 26.545 18.2C27.025 17.93 27.4 17.52 27.67 16.97H29.725C29.335 17.97 28.705 18.74 27.835 19.28C26.975 19.82 25.99 20.09 24.88 20.09C23.9 20.09 23.005 19.865 22.195 19.415C21.385 18.955 20.74 18.32 20.26 17.51C19.79 16.7 19.555 15.785 19.555 14.765ZM33.4366 18.62H36.9616V20H31.7266V9.575H33.4366V18.62ZM40.1016 10.955V14.015H43.7016V15.41H40.1016V18.605H44.1516V20H38.3916V9.56H44.1516V10.955H40.1016ZM52.5428 17.87H48.1778L47.4278 20H45.6428L49.3778 9.56H51.3578L55.0928 20H53.2928L52.5428 17.87ZM52.0628 16.475L50.3678 11.63L48.6578 16.475H52.0628ZM62.1318 20L59.7318 15.83H58.4268V20H56.7168V9.575H60.3168C61.1168 9.575 61.7918 9.715 62.3418 9.995C62.9018 10.275 63.3168 10.65 63.5868 11.12C63.8668 11.59 64.0068 12.115 64.0068 12.695C64.0068 13.375 63.8068 13.995 63.4068 14.555C63.0168 15.105 62.4118 15.48 61.5918 15.68L64.1718 20H62.1318ZM58.4268 14.465H60.3168C60.9568 14.465 61.4368 14.305 61.7568 13.985C62.0868 13.665 62.2518 13.235 62.2518 12.695C62.2518 12.155 62.0918 11.735 61.7718 11.435C61.4518 11.125 60.9668 10.97 60.3168 10.97H58.4268V14.465Z" fill="black"/>
</svg>
