<?xml version="1.0" encoding="utf-8"?>
<!-- Generator: Adobe Illustrator 24.1.1, SVG Export Plug-In . SVG Version: 6.00 Build 0)  -->
<svg version="1.1" id="Layer_1" xmlns="http://www.w3.org/2000/svg" xmlns:xlink="http://www.w3.org/1999/xlink" x="0px" y="0px"
	 viewBox="0 0 512 512" style="enable-background:new 0 0 512 512;" xml:space="preserve">
<g>
	<path d="M102.4,51.2c-28.28,0-51.2,22.92-51.2,51.2v307.2c0,28.3,22.92,51.2,51.2,51.2h307.2c28.3,0,51.2-22.9,51.2-51.2V102.4
		c0-28.28-22.9-51.2-51.2-51.2H102.4z M102.4,0h307.2C466.17,0,512,45.85,512,102.4v307.2c0,56.57-45.83,102.4-102.4,102.4H102.4
		C45.85,512,0,466.17,0,409.6V102.4C0,45.85,45.85,0,102.4,0z"/>
	<path d="M296.63,281.6H153.6c-14.13,0-25.6-11.45-25.6-25.6c0-14.13,11.48-25.6,25.6-25.6h143.02l-64.93-64.9
		c-9.82-10.18-9.55-26.38,0.63-36.2c9.93-9.6,25.65-9.6,35.57,0l108.6,108.63c10,9.93,10.05,26.07,0.13,36.07l-0.13,0.1
		L267.9,382.73c-9.82,10.17-26.05,10.45-36.2,0.63c-10.18-9.8-10.45-26.02-0.65-36.18l0.65-0.65L296.63,281.6z"/>
</g>
</svg>
